<svg xmlns="http://www.w3.org/2000/svg" version="1.1" xmlns:xlink="http://www.w3.org/1999/xlink" width="1000" height="1000"><style>
    #light-icon {
      display: inline;
    }
    #dark-icon {
      display: none;
    }

    @media (prefers-color-scheme: dark) {
      #light-icon {
        display: none;
      }
      #dark-icon {
        display: inline;
      }
    }
  </style><g id="light-icon"><svg xmlns="http://www.w3.org/2000/svg" version="1.1" xmlns:xlink="http://www.w3.org/1999/xlink" width="1000" height="1000"><g><g transform="matrix(14.285714285714286,0,0,14.285714285714286,0,107.14285714285711)"><svg xmlns="http://www.w3.org/2000/svg" width="70" height="55" viewBox="0 0 70 55" fill="none"><path d="M25.4545 44.0145L25.4629 44H25.4461L25.4545 44.0145Z" fill="black"></path><path d="M38.1734 44L38.1818 44.0145L38.1902 44H38.1734Z" fill="black"></path><path d="M50.9007 44L50.9091 44.0145L50.9175 44H50.9007Z" fill="black"></path><path d="M63.628 44L63.6364 44.0145L63.6448 44H63.628Z" fill="black"></path><path d="M63.6297 22H63.643L63.6364 21.9885L63.6297 22Z" fill="black"></path><path d="M50.9157 22L50.9091 21.9885L50.9024 22H50.9157Z" fill="black"></path><path d="M44.5313 11H44.5596L44.5455 10.9755L44.5313 11Z" fill="black"></path><path d="M31.8323 11L31.8182 10.9755L31.804 11H31.8323Z" fill="black"></path><path d="M19.1051 11L19.0909 10.9755L19.0767 11H19.1051Z" fill="black"></path><path d="M6.37781 11L6.36364 10.9755L6.34947 11H6.37781Z" fill="black"></path><path d="M6.36451 33H6.36276L6.36364 33.0015L6.36451 33Z" fill="black"></path><path d="M12.7189 44H12.7357H25.4461H25.4629L31.8182 33.0015L31.8173 33H19.0918L19.0909 33.0015L19.09 33H6.36451L6.36364 33.0015L12.7189 44Z" fill="black"></path><path d="M38.1734 44L25.4629 44L25.4545 44.0145L31.8023 55H31.8341H44.5295H44.5614H57.2568H57.2887L63.6364 44.0145L63.628 44H63.6448L70 33.0015L69.9991 33L63.643 22H63.6297L57.2736 33L57.2727 33.0015L50.9175 44L50.9091 44.0145L50.9007 44H38.1902L38.1818 44.0145L38.1734 44Z" fill="black"></path><path d="M57.2869 11H57.2586H44.5596H44.5313L38.1818 21.9885L38.1885 22H50.9024L50.9091 21.9885L50.9157 22H63.6297L63.6364 21.9885L57.2869 11Z" fill="black"></path><path d="M38.2035 3.88084e-06H38.1601L25.4762 1.94042e-06H25.4329L12.749 0H12.7056L6.36364 10.9755L6.37781 11H6.34947L0 21.9885L0.0066495 22L6.36276 33H6.36451L12.7206 22L12.7273 21.9885L19.0767 11L19.0909 10.9755L19.1051 11H31.804L31.8182 10.9755L31.8323 11H44.5313L44.5455 10.9755L38.2035 3.88084e-06Z" fill="black"></path></svg></g></g></svg></g><g id="dark-icon"><svg xmlns="http://www.w3.org/2000/svg" version="1.1" xmlns:xlink="http://www.w3.org/1999/xlink" width="1000" height="1000"><g><g transform="matrix(14.285714285714286,0,0,14.285714285714286,0,107.14285714285711)"><svg xmlns="http://www.w3.org/2000/svg" width="70" height="55" viewBox="0 0 70 55" fill="none"><path d="M25.4545 44.0145L25.4629 44H25.4461L25.4545 44.0145Z" fill="white"></path><path d="M38.1734 44L38.1818 44.0145L38.1902 44H38.1734Z" fill="white"></path><path d="M50.9007 44L50.9091 44.0145L50.9175 44H50.9007Z" fill="white"></path><path d="M63.628 44L63.6364 44.0145L63.6448 44H63.628Z" fill="white"></path><path d="M63.6297 22H63.643L63.6364 21.9885L63.6297 22Z" fill="white"></path><path d="M50.9157 22L50.9091 21.9885L50.9024 22H50.9157Z" fill="white"></path><path d="M44.5313 11H44.5596L44.5455 10.9755L44.5313 11Z" fill="white"></path><path d="M31.8323 11L31.8182 10.9755L31.804 11H31.8323Z" fill="white"></path><path d="M19.1051 11L19.0909 10.9755L19.0767 11H19.1051Z" fill="white"></path><path d="M6.37781 11L6.36364 10.9755L6.34947 11H6.37781Z" fill="white"></path><path d="M6.36451 33H6.36276L6.36364 33.0015L6.36451 33Z" fill="white"></path><path d="M12.7189 44H12.7357H25.4461H25.4629L31.8182 33.0015L31.8173 33H19.0918L19.0909 33.0015L19.09 33H6.36451L6.36364 33.0015L12.7189 44Z" fill="white"></path><path d="M38.1734 44L25.4629 44L25.4545 44.0145L31.8023 55H31.8341H44.5295H44.5614H57.2568H57.2887L63.6364 44.0145L63.628 44H63.6448L70 33.0015L69.9991 33L63.643 22H63.6297L57.2736 33L57.2727 33.0015L50.9175 44L50.9091 44.0145L50.9007 44H38.1902L38.1818 44.0145L38.1734 44Z" fill="white"></path><path d="M57.2869 11H57.2586H44.5596H44.5313L38.1818 21.9885L38.1885 22H50.9024L50.9091 21.9885L50.9157 22H63.6297L63.6364 21.9885L57.2869 11Z" fill="white"></path><path d="M38.2035 3.88084e-06H38.1601L25.4762 1.94042e-06H25.4329L12.749 0H12.7056L6.36364 10.9755L6.37781 11H6.34947L0 21.9885L0.0066495 22L6.36276 33H6.36451L12.7206 22L12.7273 21.9885L19.0767 11L19.0909 10.9755L19.1051 11H31.804L31.8182 10.9755L31.8323 11H44.5313L44.5455 10.9755L38.2035 3.88084e-06Z" fill="white"></path></svg></g></g></svg></g></svg>